<svg xmlns="http://www.w3.org/2000/svg" xmlns:xlink="http://www.w3.org/1999/xlink" width="201" zoomAndPan="magnify" viewBox="0 0 150.75 157.5" height="210" preserveAspectRatio="xMidYMid meet" version="1.0"><defs><clipPath id="id1"><path d="M 0.113281 0 L 150.386719 0 L 150.386719 157 L 0.113281 157 Z M 0.113281 0 " clip-rule="nonzero"/></clipPath></defs><g clip-path="url(#id1)"><path fill="rgb(100%, 100%, 100%)" d="M 0.113281 0 L 150.636719 0 L 150.636719 164 L 0.113281 164 Z M 0.113281 0 " fill-opacity="1" fill-rule="nonzero"/><path fill="rgb(100%, 100%, 100%)" d="M 0.113281 0 L 150.636719 0 L 150.636719 157.261719 L 0.113281 157.261719 Z M 0.113281 0 " fill-opacity="1" fill-rule="nonzero"/><path fill="rgb(100%, 100%, 100%)" d="M 0.113281 0 L 150.636719 0 L 150.636719 157.261719 L 0.113281 157.261719 Z M 0.113281 0 " fill-opacity="1" fill-rule="nonzero"/><path fill="rgb(100%, 100%, 100%)" d="M 0.113281 0 L 150.636719 0 L 150.636719 157.261719 L 0.113281 157.261719 Z M 0.113281 0 " fill-opacity="1" fill-rule="nonzero"/><path fill="rgb(100%, 100%, 100%)" d="M 0.113281 0 L 157.375 0 L 157.375 157.261719 L 0.113281 157.261719 L 0.113281 0 " fill-opacity="1" fill-rule="nonzero"/><path fill="rgb(22.749329%, 83.139038%, 68.629456%)" d="M 78.863281 145.71875 C 41.964844 145.71875 11.890625 115.695312 11.890625 78.691406 C 11.890625 41.6875 41.886719 11.664062 78.863281 11.664062 C 102.863281 11.664062 124.6875 24.273438 136.6875 44.839844 L 90.488281 106.914062 L 74.585938 86.496094 L 67.460938 76.816406 L 52.761719 96.929688 L 67.761719 96.929688 L 85.914062 120.199219 C 87.039062 121.699219 88.835938 122.527344 90.710938 122.527344 C 92.585938 122.527344 94.386719 121.625 95.4375 120.125 L 150.636719 45.964844 L 148.984375 42.664062 C 135.335938 16.316406 108.488281 -0.121094 78.863281 -0.121094 C 35.4375 -0.121094 0.113281 35.230469 0.113281 78.691406 C 0.113281 122.152344 35.4375 157.503906 78.863281 157.503906 C 106.535156 157.503906 131.738281 143.394531 146.136719 119.671875 L 136.085938 113.519531 C 123.785156 133.636719 102.410156 145.71875 78.863281 145.71875 Z M 78.863281 145.71875 " fill-opacity="1" fill-rule="nonzero"/></g><path fill="rgb(100%, 72.549438%, 11.369324%)" d="M 92.136719 83.570312 L 106.835938 63.453125 L 92.363281 63.453125 L 71.886719 37.183594 C 70.761719 35.757812 68.960938 34.855469 67.164062 34.855469 C 67.164062 34.855469 67.085938 34.855469 67.085938 34.855469 C 65.210938 34.855469 63.414062 35.757812 62.289062 37.332031 L 20.511719 94.078125 L 35.136719 94.078125 L 67.238281 50.46875 L 77.664062 63.828125 Z M 92.136719 83.570312 " fill-opacity="1" fill-rule="nonzero"/></svg>